<?xml version="1.0"?>
<!-- Generated by SVGo and Plotinum VG -->
<svg width="15in" height="15in"
	xmlns="http://www.w3.org/2000/svg"
	xmlns:xlink="http://www.w3.org/1999/xlink">
<g transform="scale(1, -1) translate(0, -1350)">
<path d="M0,0L1350,0L1350,1350L0,1350Z" style="fill:#FFFFFF" />
<text x="715.99" y="-4.8267" transform="scale(1, -1)"
	style="font-family:Times;font-weight:normal;font-style:normal;font-size:12pt">vRTT</text>
<text x="116.9" y="-19.502" transform="scale(1, -1)"
	style="font-family:Times;font-weight:normal;font-style:normal;font-size:10pt">0.2</text>
<text x="725.64" y="-19.502" transform="scale(1, -1)"
	style="font-family:Times;font-weight:normal;font-style:normal;font-size:10pt">0.6</text>
<text x="1334.4" y="-19.502" transform="scale(1, -1)"
	style="font-family:Times;font-weight:normal;font-style:normal;font-size:10pt">1.0</text>
<path d="M124.72,31.538L124.72,41.538" style="fill:none;stroke:#000000;stroke-width:0.625" />
<path d="M733.45,31.538L733.45,41.538" style="fill:none;stroke:#000000;stroke-width:0.625" />
<path d="M1342.2,31.538L1342.2,41.538" style="fill:none;stroke:#000000;stroke-width:0.625" />
<path d="M276.9,36.538L276.9,41.538" style="fill:none;stroke:#000000;stroke-width:0.625" />
<path d="M429.08,36.538L429.08,41.538" style="fill:none;stroke:#000000;stroke-width:0.625" />
<path d="M581.27,36.538L581.27,41.538" style="fill:none;stroke:#000000;stroke-width:0.625" />
<path d="M885.64,36.538L885.64,41.538" style="fill:none;stroke:#000000;stroke-width:0.625" />
<path d="M1037.8,36.538L1037.8,41.538" style="fill:none;stroke:#000000;stroke-width:0.625" />
<path d="M1190,36.538L1190,41.538" style="fill:none;stroke:#000000;stroke-width:0.625" />
<path d="M124.72,41.538L1342.2,41.538" style="fill:none;stroke:#000000;stroke-width:0.625" />
<g transform="rotate(90)">
<text x="636.96" y="24.072" transform="scale(1, -1)"
	style="font-family:Times;font-weight:normal;font-style:normal;font-size:20pt">InP/CWND</text>
</g>
<text x="32.117" y="-42.198" transform="scale(1, -1)"
	style="font-family:Times;font-weight:normal;font-style:normal;font-size:10pt">-0.5</text>
<text x="36.279" y="-690.08" transform="scale(1, -1)"
	style="font-family:Times;font-weight:normal;font-style:normal;font-size:10pt">0.5</text>
<text x="36.279" y="-1338" transform="scale(1, -1)"
	style="font-family:Times;font-weight:normal;font-style:normal;font-size:10pt">1.5</text>
<path d="M55.029,48.101L65.029,48.101" style="fill:none;stroke:#000000;stroke-width:0.625" />
<path d="M55.029,695.98L65.029,695.98" style="fill:none;stroke:#000000;stroke-width:0.625" />
<path d="M55.029,1343.9L65.029,1343.9" style="fill:none;stroke:#000000;stroke-width:0.625" />
<path d="M60.029,372.04L65.029,372.04" style="fill:none;stroke:#000000;stroke-width:0.625" />
<path d="M60.029,1019.9L65.029,1019.9" style="fill:none;stroke:#000000;stroke-width:0.625" />
<path d="M65.029,48.101L65.029,1343.9" style="fill:none;stroke:#000000;stroke-width:0.625" />
<path d="M1037.8,695.98A0,0 0 1 1 1037.8,695.98A0,0 0 1 1 1037.8,695.98Z" style="fill:#CE8A06" />
<path d="M1190,695.98A0,0 0 1 1 1190,695.98A0,0 0 1 1 1190,695.98Z" style="fill:#D08A06" />
<path d="M1342.2,695.98A0,0 0 1 1 1342.2,695.98A0,0 0 1 1 1342.2,695.98Z" style="fill:#D28A06" />
<path d="M885.64,695.98A0,0 0 1 1 885.64,695.98A0,0 0 1 1 885.64,695.98Z" style="fill:#CC8A06" />
<path d="M733.45,695.98A9.2519e-15,9.2519e-15 0 1 1 733.45,695.98A9.2519e-15,9.2519e-15 0 1 1 733.45,695.98Z" style="fill:#CA8A06" />
<path d="M597.93,695.98A16.667,16.667 0 1 1 564.6,695.98A16.667,16.667 0 1 1 597.93,695.98Z" style="fill:#C88A08" />
<path d="M462.42,695.98L462.42,695.98A33.333,33.333 0 1 1 395.75,695.98A33.333,33.333 0 1 1 462.42,695.98Z" style="fill:#C68A0A" />
<path d="M310.23,695.98L310.23,695.98A33.333,33.333 0 1 1 243.57,695.98A33.333,33.333 0 1 1 310.23,695.98Z" style="fill:#C48A0A" />
<path d="M174.72,695.98A50,50 0 1 1 74.717,695.98A50,50 0 1 1 174.72,695.98Z" style="fill:#C28A0C" />
<text x="900.88" y="-48.564" transform="scale(1, -1)"
	style="font-family:Times;font-weight:normal;font-style:normal;font-size:20pt">The bigger the circle, the bigger the value</text>
</g>
</svg>
