<?xml version="1.0"?>
<!-- Generated by SVGo and Plotinum VG -->
<svg width="5in" height="5in"
	xmlns="http://www.w3.org/2000/svg"
	xmlns:xlink="http://www.w3.org/1999/xlink">
<g transform="scale(1, -1) translate(0, -450)">
<path d="M0,0L450,0L450,450L0,450Z" style="fill:#FFFFFF" />
<text x="128.35" y="-435.56" transform="scale(1, -1)"
	style="font-family:Times;font-weight:normal;font-style:normal;font-size:12pt">Income Memberships Functions</text>
<text x="224.65" y="-4.8267" transform="scale(1, -1)"
	style="font-family:Times;font-weight:normal;font-style:normal;font-size:12pt">Income</text>
<text x="44.27" y="-19.502" transform="scale(1, -1)"
	style="font-family:Times;font-weight:normal;font-style:normal;font-size:10pt">0.00</text>
<text x="236.2" y="-19.502" transform="scale(1, -1)"
	style="font-family:Times;font-weight:normal;font-style:normal;font-size:10pt">0.25</text>
<text x="428.12" y="-19.502" transform="scale(1, -1)"
	style="font-family:Times;font-weight:normal;font-style:normal;font-size:10pt">0.50</text>
<path d="M55.208,31.538L55.208,41.538" style="fill:none;stroke:#000000;stroke-width:0.625" />
<path d="M247.14,31.538L247.14,41.538" style="fill:none;stroke:#000000;stroke-width:0.625" />
<path d="M439.06,31.538L439.06,41.538" style="fill:none;stroke:#000000;stroke-width:0.625" />
<path d="M93.593,36.538L93.593,41.538" style="fill:none;stroke:#000000;stroke-width:0.625" />
<path d="M131.98,36.538L131.98,41.538" style="fill:none;stroke:#000000;stroke-width:0.625" />
<path d="M170.36,36.538L170.36,41.538" style="fill:none;stroke:#000000;stroke-width:0.625" />
<path d="M208.75,36.538L208.75,41.538" style="fill:none;stroke:#000000;stroke-width:0.625" />
<path d="M285.52,36.538L285.52,41.538" style="fill:none;stroke:#000000;stroke-width:0.625" />
<path d="M323.91,36.538L323.91,41.538" style="fill:none;stroke:#000000;stroke-width:0.625" />
<path d="M362.29,36.538L362.29,41.538" style="fill:none;stroke:#000000;stroke-width:0.625" />
<path d="M400.68,36.538L400.68,41.538" style="fill:none;stroke:#000000;stroke-width:0.625" />
<path d="M55.208,41.538L439.06,41.538" style="fill:none;stroke:#000000;stroke-width:0.625" />
<g transform="rotate(90)">
<text x="221.77" y="14.443" transform="scale(1, -1)"
	style="font-family:Times;font-weight:normal;font-style:normal;font-size:12pt">Fuzz</text>
</g>
<text x="19.27" y="-42.198" transform="scale(1, -1)"
	style="font-family:Times;font-weight:normal;font-style:normal;font-size:10pt">0.0</text>
<text x="19.27" y="-230.45" transform="scale(1, -1)"
	style="font-family:Times;font-weight:normal;font-style:normal;font-size:10pt">0.5</text>
<text x="19.27" y="-418.69" transform="scale(1, -1)"
	style="font-family:Times;font-weight:normal;font-style:normal;font-size:10pt">1.0</text>
<path d="M38.02,48.101L48.02,48.101" style="fill:none;stroke:#000000;stroke-width:0.625" />
<path d="M38.02,236.35L48.02,236.35" style="fill:none;stroke:#000000;stroke-width:0.625" />
<path d="M38.02,424.6L48.02,424.6" style="fill:none;stroke:#000000;stroke-width:0.625" />
<path d="M43.02,85.75L48.02,85.75" style="fill:none;stroke:#000000;stroke-width:0.625" />
<path d="M43.02,123.4L48.02,123.4" style="fill:none;stroke:#000000;stroke-width:0.625" />
<path d="M43.02,161.05L48.02,161.05" style="fill:none;stroke:#000000;stroke-width:0.625" />
<path d="M43.02,198.7L48.02,198.7" style="fill:none;stroke:#000000;stroke-width:0.625" />
<path d="M43.02,274L48.02,274" style="fill:none;stroke:#000000;stroke-width:0.625" />
<path d="M43.02,311.65L48.02,311.65" style="fill:none;stroke:#000000;stroke-width:0.625" />
<path d="M43.02,349.3L48.02,349.3" style="fill:none;stroke:#000000;stroke-width:0.625" />
<path d="M43.02,386.95L48.02,386.95" style="fill:none;stroke:#000000;stroke-width:0.625" />
<path d="M48.02,48.101L48.02,424.6" style="fill:none;stroke:#000000;stroke-width:0.625" />
<path d="M55.208,424.6L63.041,424.6L70.875,424.6L78.709,424.6L86.543,424.6L94.376,424.6L102.21,424.6L110.04,424.6L117.88,424.6L125.71,424.6L133.55,420.75L141.38,401.55L149.21,382.34L157.05,363.13L164.88,343.92L172.71,324.71L180.55,305.5L188.38,286.29L196.22,267.08L204.05,247.87L211.88,228.66L219.72,209.46L227.55,190.25L235.38,171.04L243.22,151.83L251.05,132.62L258.89,113.41L266.72,94.202L274.55,74.993L282.39,55.784L290.22,48.101L298.05,48.101L305.89,48.101L313.72,48.101L321.56,48.101L329.39,48.101L337.22,48.101L345.06,48.101L352.89,48.101L360.72,48.101L368.56,48.101L376.39,48.101L384.23,48.101L392.06,48.101L399.89,48.101L407.73,48.101L415.56,48.101L423.39,48.101L431.23,48.101L439.06,48.101" style="fill:none;stroke:#FF0000;stroke-width:1.25" />
<path d="M55.208,48.101L63.041,48.101L70.875,48.101L78.709,48.101L86.543,48.101L94.376,48.101L102.21,48.101L110.04,48.101L117.88,48.101L125.71,48.101L133.55,51.942L141.38,71.151L149.21,90.36L157.05,109.57L164.88,128.78L172.71,147.99L180.55,167.2L188.38,186.41L196.22,205.61L204.05,224.82L211.88,244.03L219.72,263.24L227.55,282.45L235.38,301.66L243.22,320.87L251.05,340.08L258.89,359.29L266.72,378.49L274.55,397.7L282.39,416.91L290.22,424.6L298.05,424.6L305.89,424.6L313.72,424.6L321.56,424.6L329.39,424.6L337.22,424.6L345.06,424.6L352.89,424.6L360.72,424.6L368.56,409.23L376.39,390.02L384.23,370.81L392.06,351.6L399.89,332.39L407.73,313.18L415.56,293.98L423.39,274.77L431.23,255.56L439.06,236.35" style="fill:none;stroke:#00FF00;stroke-width:1.25" />
<path d="M55.208,48.101L63.041,48.101L70.875,48.101L78.709,48.101L86.543,48.101L94.376,48.101L102.21,48.101L110.04,48.101L117.88,48.101L125.71,48.101L133.55,48.101L141.38,48.101L149.21,48.101L157.05,48.101L164.88,48.101L172.71,48.101L180.55,48.101L188.38,48.101L196.22,48.101L204.05,48.101L211.88,48.101L219.72,48.101L227.55,48.101L235.38,48.101L243.22,48.101L251.05,48.101L258.89,48.101L266.72,48.101L274.55,48.101L282.39,48.101L290.22,48.101L298.05,48.101L305.89,48.101L313.72,48.101L321.56,48.101L329.39,48.101L337.22,48.101L345.06,48.101L352.89,48.101L360.72,48.101L368.56,63.468L376.39,82.677L384.23,101.89L392.06,121.09L399.89,140.3L407.73,159.51L415.56,178.72L423.39,197.93L431.23,217.14L439.06,236.35" style="fill:none;stroke:#0000FF;stroke-width:1.25" />
</g>
</svg>
