<?xml version="1.0"?>
<!-- Generated by SVGo and Plotinum VG -->
<svg width="5in" height="5in"
	xmlns="http://www.w3.org/2000/svg"
	xmlns:xlink="http://www.w3.org/1999/xlink">
<g transform="scale(1, -1) translate(0, -450)">
<path d="M0,0L450,0L450,450L0,450Z" style="fill:#FFFFFF" />
<text x="139.17" y="-435.56" transform="scale(1, -1)"
	style="font-family:Times;font-weight:normal;font-style:normal;font-size:12pt">Debt Membership Functions</text>
<text x="238.02" y="-4.8267" transform="scale(1, -1)"
	style="font-family:Times;font-weight:normal;font-style:normal;font-size:12pt">Debt</text>
<text x="47.395" y="-19.502" transform="scale(1, -1)"
	style="font-family:Times;font-weight:normal;font-style:normal;font-size:10pt">0.0</text>
<text x="211.89" y="-19.502" transform="scale(1, -1)"
	style="font-family:Times;font-weight:normal;font-style:normal;font-size:10pt">0.5</text>
<text x="376.39" y="-19.502" transform="scale(1, -1)"
	style="font-family:Times;font-weight:normal;font-style:normal;font-size:10pt">1.0</text>
<path d="M55.208,31.538L55.208,41.538" style="fill:none;stroke:#000000;stroke-width:0.625" />
<path d="M219.7,31.538L219.7,41.538" style="fill:none;stroke:#000000;stroke-width:0.625" />
<path d="M384.2,31.538L384.2,41.538" style="fill:none;stroke:#000000;stroke-width:0.625" />
<path d="M88.107,36.538L88.107,41.538" style="fill:none;stroke:#000000;stroke-width:0.625" />
<path d="M121.01,36.538L121.01,41.538" style="fill:none;stroke:#000000;stroke-width:0.625" />
<path d="M153.91,36.538L153.91,41.538" style="fill:none;stroke:#000000;stroke-width:0.625" />
<path d="M186.81,36.538L186.81,41.538" style="fill:none;stroke:#000000;stroke-width:0.625" />
<path d="M252.6,36.538L252.6,41.538" style="fill:none;stroke:#000000;stroke-width:0.625" />
<path d="M285.5,36.538L285.5,41.538" style="fill:none;stroke:#000000;stroke-width:0.625" />
<path d="M318.4,36.538L318.4,41.538" style="fill:none;stroke:#000000;stroke-width:0.625" />
<path d="M351.3,36.538L351.3,41.538" style="fill:none;stroke:#000000;stroke-width:0.625" />
<path d="M417.1,36.538L417.1,41.538" style="fill:none;stroke:#000000;stroke-width:0.625" />
<path d="M55.208,41.538L450,41.538" style="fill:none;stroke:#000000;stroke-width:0.625" />
<g transform="rotate(90)">
<text x="221.77" y="14.443" transform="scale(1, -1)"
	style="font-family:Times;font-weight:normal;font-style:normal;font-size:12pt">Fuzz</text>
</g>
<text x="19.27" y="-42.198" transform="scale(1, -1)"
	style="font-family:Times;font-weight:normal;font-style:normal;font-size:10pt">0.0</text>
<text x="19.27" y="-230.45" transform="scale(1, -1)"
	style="font-family:Times;font-weight:normal;font-style:normal;font-size:10pt">0.5</text>
<text x="19.27" y="-418.69" transform="scale(1, -1)"
	style="font-family:Times;font-weight:normal;font-style:normal;font-size:10pt">1.0</text>
<path d="M38.02,48.101L48.02,48.101" style="fill:none;stroke:#000000;stroke-width:0.625" />
<path d="M38.02,236.35L48.02,236.35" style="fill:none;stroke:#000000;stroke-width:0.625" />
<path d="M38.02,424.6L48.02,424.6" style="fill:none;stroke:#000000;stroke-width:0.625" />
<path d="M43.02,85.75L48.02,85.75" style="fill:none;stroke:#000000;stroke-width:0.625" />
<path d="M43.02,123.4L48.02,123.4" style="fill:none;stroke:#000000;stroke-width:0.625" />
<path d="M43.02,161.05L48.02,161.05" style="fill:none;stroke:#000000;stroke-width:0.625" />
<path d="M43.02,198.7L48.02,198.7" style="fill:none;stroke:#000000;stroke-width:0.625" />
<path d="M43.02,274L48.02,274" style="fill:none;stroke:#000000;stroke-width:0.625" />
<path d="M43.02,311.65L48.02,311.65" style="fill:none;stroke:#000000;stroke-width:0.625" />
<path d="M43.02,349.3L48.02,349.3" style="fill:none;stroke:#000000;stroke-width:0.625" />
<path d="M43.02,386.95L48.02,386.95" style="fill:none;stroke:#000000;stroke-width:0.625" />
<path d="M48.02,48.101L48.02,424.6" style="fill:none;stroke:#000000;stroke-width:0.625" />
<path d="M55.208,424.6L63.265,424.6L71.321,424.6L79.378,424.6L87.435,424.6L95.492,424.6L103.55,424.6L111.61,424.6L119.66,424.6L127.72,386.18L135.78,340.08L143.83,293.98L151.89,247.87L159.95,201.77L168.01,155.67L176.06,109.57L184.12,63.468L192.18,48.101L200.23,48.101L208.29,48.101L216.35,48.101L224.4,48.101L232.46,48.101L240.52,48.101L248.58,48.101L256.63,48.101L264.69,48.101L272.75,48.101L280.8,48.101L288.86,48.101L296.92,48.101L304.97,48.101L313.03,48.101L321.09,48.101L329.15,48.101L337.2,48.101L345.26,48.101L353.32,48.101L361.37,48.101L369.43,48.101L377.49,48.101L385.54,48.101L393.6,48.101L401.66,48.101L409.72,48.101L417.77,48.101L425.83,48.101L433.89,48.101L441.94,48.101L450,48.101" style="fill:none;stroke:#FF0000;stroke-width:1.25" />
<path d="M55.208,48.101L63.265,48.101L71.321,48.101L79.378,48.101L87.435,48.101L95.492,48.101L103.55,48.101L111.61,48.101L119.66,48.101L127.72,86.518L135.78,132.62L143.83,178.72L151.89,224.82L159.95,270.92L168.01,317.03L176.06,363.13L184.12,409.23L192.18,424.6L200.23,424.6L208.29,424.6L216.35,424.6L224.4,424.6L232.46,424.6L240.52,424.6L248.58,424.6L256.63,409.23L264.69,378.49L272.75,347.76L280.8,317.03L288.86,286.29L296.92,255.56L304.97,224.82L313.03,194.09L321.09,163.35L329.15,132.62L337.2,101.89L345.26,71.151L353.32,48.101L361.37,48.101L369.43,48.101L377.49,48.101L385.54,48.101L393.6,48.101L401.66,48.101L409.72,48.101L417.77,48.101L425.83,48.101L433.89,48.101L441.94,48.101L450,48.101" style="fill:none;stroke:#00FF00;stroke-width:1.25" />
<path d="M55.208,48.101L63.265,48.101L71.321,48.101L79.378,48.101L87.435,48.101L95.492,48.101L103.55,48.101L111.61,48.101L119.66,48.101L127.72,48.101L135.78,48.101L143.83,48.101L151.89,48.101L159.95,48.101L168.01,48.101L176.06,48.101L184.12,48.101L192.18,48.101L200.23,48.101L208.29,48.101L216.35,48.101L224.4,48.101L232.46,48.101L240.52,48.101L248.58,48.101L256.63,63.468L264.69,94.202L272.75,124.94L280.8,155.67L288.86,186.41L296.92,217.14L304.97,247.87L313.03,278.61L321.09,309.34L329.15,340.08L337.2,370.81L345.26,401.55L353.32,424.6L361.37,424.6L369.43,424.6L377.49,424.6L385.54,424.6L393.6,424.6L401.66,424.6L409.72,424.6L417.77,424.6L425.83,424.6L433.89,424.6L441.94,424.6L450,424.6" style="fill:none;stroke:#0000FF;stroke-width:1.25" />
</g>
</svg>
